<?xml version="1.0" encoding="utf-8"?>
<!-- Generator: Adobe Illustrator 23.0.3, SVG Export Plug-In . SVG Version: 6.00 Build 0)  -->
<svg version="1.1" id="OBJECTS" xmlns="http://www.w3.org/2000/svg" xmlns:xlink="http://www.w3.org/1999/xlink" x="0px" y="0px"
	 viewBox="0 0 500 500" style="enable-background:new 0 0 500 500;" xml:space="preserve">
<style type="text/css">
	.st0{opacity:0.1;fill:#34DCE7;}
	.st1{fill:#224DC2;}
	.st2{fill:#226FCD;}
	.st3{fill:#479EE8;}
	.st4{fill:#15081F;}
	.st5{fill:#80FFFF;}
	.st6{fill:#34DCE7;}
	.st7{fill:#DBFF0E;}
	.st8{fill:#FF551F;}
	.st9{fill:#FF2995;}
	.st10{opacity:0.17;}
	.st11{fill:#FEB187;}
	.st12{fill:#F88B65;}
	.st13{fill:#B7FFE7;}
	.st14{fill:#96D2E7;}
	.st15{fill:#14C3E7;}
	.st16{fill:#14AFE7;}
	.st17{fill:#DC9266;}
	.st18{fill:#0C2898;}
	.st19{fill:#133AAF;}
	.st20{fill:#2273DB;}
	.st21{fill:#22A4FD;}
	.st22{opacity:0.65;fill:#224DC2;}
	.st23{fill:#52FFFD;}
	.st24{fill:#70FFE7;}
	.st25{fill:#2293F0;}
	.st26{fill:#22B2FF;}
	.st27{fill:#77FFFF;}
	.st28{fill:#27B0D7;}
	.st29{fill:#5FFFFF;}
	.st30{fill:#226EE5;}
	.st31{fill:#111F9A;}
	.st32{fill:#1159C9;}
	.st33{fill:#111B54;}
	.st34{fill:#34C6E7;}
	.st35{fill:#151586;}
	.st36{opacity:0.3;fill:#34DCE7;}
	.st37{opacity:0.66;fill:#34DCE7;}
	.st38{fill:none;stroke:#34FBE7;stroke-linecap:round;stroke-linejoin:round;stroke-miterlimit:10;}
	.st39{fill:#34FBE7;}
</style>
<g>
	<ellipse class="st0" cx="251.82" cy="412.9" rx="89.77" ry="26.92"/>
	<ellipse class="st0" cx="251.82" cy="405.84" rx="65.68" ry="19.69"/>
	<ellipse class="st0" cx="251.82" cy="404.43" rx="49.18" ry="14.75"/>
	<rect x="115" y="276.66" class="st1" width="265" height="5.87"/>
	<path class="st1" d="M334.46,263.26H164.33c-2.79,0-5.05-2.26-5.05-5.05V145.45c0-2.79,2.26-5.05,5.05-5.05h170.13
		c2.79,0,5.05,2.26,5.05,5.05v112.77C339.51,261,337.25,263.26,334.46,263.26z"/>
	<path class="st2" d="M334.46,140.4H164.33c-2.79,0-5.05,2.26-5.05,5.05v105.24h180.23V145.45
		C339.51,142.66,337.25,140.4,334.46,140.4z"/>
	<path class="st3" d="M334.46,140.4H164.33c-2.79,0-5.05,2.26-5.05,5.05v0.36c0-2.79,2.26-5.05,5.05-5.05h170.13
		c2.79,0,5.05,2.26,5.05,5.05v-0.36C339.51,142.66,337.25,140.4,334.46,140.4z"/>
	<rect x="166.29" y="148.14" class="st4" width="166.22" height="98.38"/>
	<g>
		<path class="st5" d="M283.25,163.01h-94.02c-0.64,0-1.16-0.52-1.16-1.16l0,0c0-0.64,0.52-1.16,1.16-1.16h94.02
			c0.64,0,1.16,0.52,1.16,1.16l0,0C284.41,162.49,283.89,163.01,283.25,163.01z"/>
		<path class="st6" d="M233.12,155.9h-59.87c-0.82,0-1.49-0.67-1.49-1.49l0,0c0-0.82,0.67-1.49,1.49-1.49h59.87
			c0.82,0,1.49,0.67,1.49,1.49l0,0C234.61,155.23,233.94,155.9,233.12,155.9z"/>
		<path class="st6" d="M178.95,163.01h-6.04c-0.64,0-1.16-0.52-1.16-1.16l0,0c0-0.64,0.52-1.16,1.16-1.16h6.04
			c0.64,0,1.16,0.52,1.16,1.16l0,0C180.11,162.49,179.59,163.01,178.95,163.01z"/>
		<path class="st7" d="M221.86,169.38h-48.41c-0.4,0-0.72-0.33-0.72-0.72l0,0c0-0.4,0.33-0.72,0.72-0.72h48.41
			c0.4,0,0.72,0.33,0.72,0.72l0,0C222.58,169.06,222.25,169.38,221.86,169.38z"/>
		<path class="st7" d="M221.86,175.27h-48.41c-0.4,0-0.72-0.33-0.72-0.72l0,0c0-0.4,0.33-0.72,0.72-0.72h48.41
			c0.4,0,0.72,0.33,0.72,0.72l0,0C222.58,174.95,222.25,175.27,221.86,175.27z"/>
		<path class="st7" d="M221.86,181.16h-48.41c-0.4,0-0.72-0.33-0.72-0.72v0c0-0.4,0.33-0.72,0.72-0.72h48.41
			c0.4,0,0.72,0.33,0.72,0.72v0C222.58,180.83,222.25,181.16,221.86,181.16z"/>
		<path class="st7" d="M221.86,187.04h-48.41c-0.4,0-0.72-0.33-0.72-0.72l0,0c0-0.4,0.33-0.72,0.72-0.72h48.41
			c0.4,0,0.72,0.33,0.72,0.72l0,0C222.58,186.72,222.25,187.04,221.86,187.04z"/>
		<path class="st7" d="M180.83,192.93h-7.39c-0.4,0-0.72-0.33-0.72-0.72l0,0c0-0.4,0.33-0.72,0.72-0.72h7.39
			c0.4,0,0.72,0.33,0.72,0.72l0,0C181.56,192.61,181.23,192.93,180.83,192.93z"/>
		<path class="st7" d="M193.73,192.93h-7.39c-0.4,0-0.72-0.33-0.72-0.72l0,0c0-0.4,0.33-0.72,0.72-0.72h7.39
			c0.4,0,0.72,0.33,0.72,0.72l0,0C194.45,192.61,194.12,192.93,193.73,192.93z"/>
		<path class="st7" d="M206.62,192.93h-7.39c-0.4,0-0.72-0.33-0.72-0.72l0,0c0-0.4,0.33-0.72,0.72-0.72h7.39
			c0.4,0,0.72,0.33,0.72,0.72l0,0C207.34,192.61,207.02,192.93,206.62,192.93z"/>
		<path class="st7" d="M219.51,192.93h-7.39c-0.4,0-0.72-0.33-0.72-0.72l0,0c0-0.4,0.33-0.72,0.72-0.72h7.39
			c0.4,0,0.72,0.33,0.72,0.72l0,0C220.23,192.61,219.91,192.93,219.51,192.93z"/>
		<path class="st7" d="M232.4,192.93h-7.39c-0.4,0-0.72-0.33-0.72-0.72l0,0c0-0.4,0.33-0.72,0.72-0.72h7.39
			c0.4,0,0.72,0.33,0.72,0.72l0,0C233.12,192.61,232.8,192.93,232.4,192.93z"/>
		<path class="st7" d="M245.29,192.93h-7.39c-0.4,0-0.72-0.33-0.72-0.72l0,0c0-0.4,0.33-0.72,0.72-0.72h7.39
			c0.4,0,0.72,0.33,0.72,0.72l0,0C246.02,192.61,245.69,192.93,245.29,192.93z"/>
		<path class="st7" d="M221.86,198.82h-48.41c-0.4,0-0.72-0.33-0.72-0.72l0,0c0-0.4,0.33-0.72,0.72-0.72h48.41
			c0.4,0,0.72,0.33,0.72,0.72l0,0C222.58,198.49,222.25,198.82,221.86,198.82z"/>
		<path class="st8" d="M321.41,179.24h-59.38c-0.55,0-1.01-0.45-1.01-1.01l0,0c0-0.55,0.45-1.01,1.01-1.01h59.38
			c0.55,0,1.01,0.45,1.01,1.01l0,0C322.42,178.79,321.96,179.24,321.41,179.24z"/>
		<path class="st9" d="M321.41,188.05h-59.38c-0.55,0-1.01-0.45-1.01-1.01v0c0-0.55,0.45-1.01,1.01-1.01h59.38
			c0.55,0,1.01,0.45,1.01,1.01v0C322.42,187.6,321.96,188.05,321.41,188.05z"/>
		<path class="st9" d="M321.41,196.3h-59.38c-0.55,0-1.01-0.45-1.01-1.01l0,0c0-0.55,0.45-1.01,1.01-1.01h59.38
			c0.55,0,1.01,0.45,1.01,1.01l0,0C322.42,195.85,321.96,196.3,321.41,196.3z"/>
		<path class="st9" d="M321.41,204.55h-59.38c-0.55,0-1.01-0.45-1.01-1.01l0,0c0-0.55,0.45-1.01,1.01-1.01h59.38
			c0.55,0,1.01,0.45,1.01,1.01l0,0C322.42,204.09,321.96,204.55,321.41,204.55z"/>
		<path class="st9" d="M321.41,212.79h-59.38c-0.55,0-1.01-0.45-1.01-1.01l0,0c0-0.55,0.45-1.01,1.01-1.01h59.38
			c0.55,0,1.01,0.45,1.01,1.01l0,0C322.42,212.34,321.96,212.79,321.41,212.79z"/>
		<path class="st9" d="M292.54,221.04h-30.51c-0.55,0-1.01-0.45-1.01-1.01l0,0c0-0.55,0.45-1.01,1.01-1.01h30.51
			c0.55,0,1.01,0.45,1.01,1.01l0,0C293.55,220.59,293.1,221.04,292.54,221.04z"/>
		<path class="st9" d="M312.49,226.66h-30.51c-0.55,0-1.01-0.45-1.01-1.01l0,0c0-0.55,0.45-1.01,1.01-1.01h30.51
			c0.55,0,1.01,0.45,1.01,1.01l0,0C313.5,226.2,313.04,226.66,312.49,226.66z"/>
		<path class="st9" d="M312.49,232.47h-30.51c-0.55,0-1.01-0.45-1.01-1.01v0c0-0.55,0.45-1.01,1.01-1.01h30.51
			c0.55,0,1.01,0.45,1.01,1.01v0C313.5,232.02,313.04,232.47,312.49,232.47z"/>
		<path class="st9" d="M195.18,232.47h-14.22c-0.55,0-1.01-0.45-1.01-1.01v0c0-0.55,0.45-1.01,1.01-1.01h14.22
			c0.55,0,1.01,0.45,1.01,1.01v0C196.19,232.02,195.73,232.47,195.18,232.47z"/>
		<path class="st9" d="M195.18,227.66h-14.22c-0.55,0-1.01-0.45-1.01-1.01l0,0c0-0.55,0.45-1.01,1.01-1.01h14.22
			c0.55,0,1.01,0.45,1.01,1.01l0,0C196.19,227.21,195.73,227.66,195.18,227.66z"/>
		<path class="st9" d="M195.18,222.86h-14.22c-0.55,0-1.01-0.45-1.01-1.01l0,0c0-0.55,0.45-1.01,1.01-1.01h14.22
			c0.55,0,1.01,0.45,1.01,1.01l0,0C196.19,222.4,195.73,222.86,195.18,222.86z"/>
		<path class="st9" d="M195.18,218.05h-14.22c-0.55,0-1.01-0.45-1.01-1.01l0,0c0-0.55,0.45-1.01,1.01-1.01h14.22
			c0.55,0,1.01,0.45,1.01,1.01l0,0C196.19,217.6,195.73,218.05,195.18,218.05z"/>
		<path class="st9" d="M208.61,218.05h-4.32c-0.55,0-1.01-0.45-1.01-1.01l0,0c0-0.55,0.45-1.01,1.01-1.01h4.32
			c0.55,0,1.01,0.45,1.01,1.01l0,0C209.62,217.6,209.16,218.05,208.61,218.05z"/>
		<path class="st9" d="M208.61,228.68h-4.32c-0.55,0-1.01-0.45-1.01-1.01l0,0c0-0.55,0.45-1.01,1.01-1.01h4.32
			c0.55,0,1.01,0.45,1.01,1.01l0,0C209.62,228.23,209.16,228.68,208.61,228.68z"/>
	</g>
	<g class="st10">
		<polygon class="st3" points="332.51,210.53 332.51,192.88 278.87,246.52 296.52,246.52 		"/>
		<polygon class="st3" points="240.16,246.52 332.51,154.17 332.51,148.14 291.44,148.14 193.05,246.52 		"/>
		<polygon class="st3" points="166.29,190.92 166.29,230.68 248.83,148.14 209.07,148.14 		"/>
	</g>
	<g>
		<rect x="240.72" y="214.75" class="st11" width="18.47" height="13.9"/>
		<path class="st12" d="M240.72,225.65c0,0,8.2,3.67,18.47,0c0,2.17,0,4.04,0,4.04l-5.08,0.93l-4.16,0.85l-9.23-3.05V225.65z"/>
		<path class="st13" d="M271.94,324.8h-44.1c-4.76,0-8.65-3.89-8.65-8.65v-8.53c0-4.76,3.89-8.65,8.65-8.65h44.1
			c4.76,0,8.65,3.89,8.65,8.65v8.53C280.59,320.91,276.7,324.8,271.94,324.8z"/>
		<path class="st14" d="M280.33,314.8c-31.68,9.34-60.87-0.07-60.88-0.07c1.16,5.73,6.25,10.08,12.31,10.08h36.27
			C274.06,324.8,279.14,320.49,280.33,314.8z"/>
		<g>
			<g>
				<path class="st6" d="M252.95,173.58l12.89-12.89c0,0,3.24,6.01-0.46,12.89l5.32-5.32c0,0,2.4,7.17-2.46,11.1l4.39-4.39
					c0,0,2.76,8.16-7.42,14.41L252.95,173.58z"/>
				<path class="st15" d="M263.5,187.17l4.06,0.53c0.01-0.01,0.02-0.02,0.03-0.03c0.03-0.32,1.07-11.57-11.84-16.9l-2.8,2.8
					L263.5,187.17z"/>
				<circle class="st11" cx="265.43" cy="201.02" r="5.73"/>
				<circle class="st11" cx="234.61" cy="201.02" r="5.73"/>
				<path class="st6" d="M249.96,222.99L249.96,222.99c-9.79,0-17.81-8.01-17.81-17.81v-14.03c0-9.79,8.01-17.81,17.81-17.81h0
					c9.79,0,17.81,8.01,17.81,17.81v14.03C267.76,214.98,259.75,222.99,249.96,222.99z"/>
				<polygon class="st16" points="235.78,202.42 235.78,206.76 237.97,204.57 239.78,206.37 241.5,204.65 243.1,206.25 
					243.1,201.26 242.54,204.31 241.52,203.2 239.79,205.19 237.93,203.17 236.6,204.62 				"/>
				<polygon class="st16" points="244.16,194.51 244.16,200.07 246.97,197.27 249.29,199.59 251.5,197.38 253.55,199.42 
					253.55,193.03 252.83,196.94 251.52,195.52 249.3,198.07 246.92,195.47 245.21,197.34 				"/>
				<polygon class="st16" points="258.1,207.68 258.1,211.15 259.85,209.4 261.3,210.85 262.68,209.47 263.95,210.74 263.95,206.76 
					263.5,209.19 262.69,208.31 261.3,209.9 259.82,208.28 258.76,209.44 				"/>
				<polygon class="st6" points="246.2,220.84 246.2,225.49 247.5,224.19 248.92,225.61 250.26,224.27 251.64,225.65 251.64,220.84 
									"/>
				<polygon class="st6" points="250.96,220.5 251.64,224.43 252.71,223.35 253.89,224.53 254.99,223.42 256.14,224.56 
					256.14,220.58 				"/>
				<polygon class="st6" points="241.7,220.58 241.7,224.43 242.78,223.35 243.95,224.53 245.06,223.42 246.2,224.56 246.62,220.5 
									"/>
				<polygon class="st6" points="238.47,178.53 234.49,174.55 234.49,178.53 230.74,178.53 233.55,181.34 230.74,181.34 
					233.78,184.38 238.47,184.38 				"/>
			</g>
			<polyline class="st11" points="208.46,264.25 206.46,276.67 218.19,276.67 218.19,262.7 209.89,260.97 			"/>
			<polygon class="st17" points="216.07,266.78 208.06,266.78 208.46,264.25 			"/>
			<path class="st18" d="M229.23,232.35c-8.4,4.11-15.87,5.37-25.3,30.4l14.28,4.75C218.21,267.49,227.61,244.09,229.23,232.35z"/>
			<polyline class="st11" points="290.47,264.25 292.47,276.67 280.74,276.67 280.74,262.7 289.05,260.97 			"/>
			<polygon class="st17" points="282.87,266.78 290.88,266.78 290.47,264.25 			"/>
			<path class="st18" d="M269.7,232.35c8.4,4.11,15.87,5.37,25.3,30.4l-14.28,4.75C280.73,267.49,271.33,244.09,269.7,232.35z"/>
			<path class="st1" d="M254.06,314.73h-9.22c-15.71,0-25.46-7.44-25.46-24.72l-3.1-33.77c0-15.71,12.85-28.56,28.56-28.56h9.22
				c15.71,0,28.56,12.85,28.56,28.56l-4.89,31.73C277.74,307.91,269.77,314.73,254.06,314.73z"/>
			<path class="st19" d="M272.8,234.76c-18.3,2.86-42.66,0.42-46.67-0.02c-4.1,3.58-7.18,8.3-8.72,13.66l2.84,0.3l11.56,1.63
				l14.81,2.33l13.66,0.87l15.7-1.73l5.05-4.82C279.39,242.2,276.52,238.01,272.8,234.76z"/>
		</g>
		<g>
			<path class="st1" d="M228.03,401.15c0,2.54,3.57,2.15,7.98,2.15c4.4,0,7.98,0.38,7.98-2.15c0-2.54-3.57-4.6-7.98-4.6
				C231.6,396.55,228.03,398.61,228.03,401.15z"/>
			<path class="st13" d="M222.94,324.8l12.91,75.13c0,0,3.66,1.37,8.11,0v-57.04L222.94,324.8z"/>
			<path class="st14" d="M243.95,344.15l-0.69-1.26l-0.76-0.11l-17.01-1.76l2.51,13.24c2.09,0.11,11.53-4.25,15.8,6.68l0.15-0.76
				V344.15z"/>
			<path class="st1" d="M271.79,401.15c0,2.54-3.57,2.15-7.98,2.15c-4.4,0-7.98,0.38-7.98-2.15c0-2.54,3.57-4.6,7.98-4.6
				C268.22,396.55,271.79,398.61,271.79,401.15z"/>
			<path class="st13" d="M276.87,324.8l-12.91,75.13c0,0-3.66,1.37-8.11,0v-57.04L276.87,324.8z"/>
			<path class="st14" d="M255.86,344.15l0.69-1.26l0.76-0.11l17.01-1.76l-2.51,13.24c-2.09,0.11-11.53-4.25-15.8,6.68l-0.15-0.76
				V344.15z"/>
		</g>
		<g>
			<path class="st20" d="M251.94,341.09v48.51c0,0.77-0.63,1.41-1.41,1.41h-1.27c-0.77,0-1.41-0.63-1.41-1.41v-48.51
				c0-0.77,0.63-1.41,1.41-1.41h1.27C251.31,339.68,251.94,340.32,251.94,341.09z"/>
			<path class="st21" d="M249.89,363.17L249.89,363.17c-3.69,0-6.71-3.02-6.71-6.71v-11.48c0-3.69,3.02-6.71,6.71-6.71h1.33
				c2.96,0,5.38,2.42,5.38,5.38v12.81C256.6,360.15,253.58,363.17,249.89,363.17z"/>
			<path class="st22" d="M256.6,345.17c-4.11-1.89-9.28-1.89-13.39,0c0-1.59,0-3.18,0-4.78c4.11-1.89,9.28-1.89,13.39,0
				C256.6,341.99,256.6,343.58,256.6,345.17z"/>
			<g>
				<g>
					<path class="st1" d="M219.17,325.75h-8.52c-11.37,0-20.62-9.25-20.62-20.62c0-10.99,8.65-20,19.5-20.59
						c0.12-0.02,0.25-0.03,0.37-0.03h0.75c1.27,0,2.3,1.03,2.3,2.3s-1.03,2.3-2.3,2.3c-8.83,0-16.02,7.19-16.02,16.02
						c0,8.83,7.19,16.02,16.02,16.02h8.52c1.27,0,2.3,1.03,2.3,2.3C221.47,324.72,220.44,325.75,219.17,325.75z"/>
				</g>
				<g>
					<g>
						<g>
							<path class="st6" d="M212.82,289.91h-7.42c-2.11,0-3.84-1.73-3.84-3.84l0,0c0-2.11,1.73-3.84,3.84-3.84h7.42
								c2.11,0,3.84,1.73,3.84,3.84l0,0C216.67,288.18,214.94,289.91,212.82,289.91z"/>
						</g>
						<g>
							<path class="st23" d="M205.4,282.66h7.42c2.04,0,3.7,1.61,3.82,3.62c0-0.07,0.02-0.15,0.02-0.22c0-2.11-1.73-3.84-3.84-3.84
								h-7.42c-2.11,0-3.84,1.73-3.84,3.84c0,0.08,0.02,0.15,0.02,0.22C201.7,284.28,203.37,282.66,205.4,282.66z"/>
						</g>
					</g>
				</g>
			</g>
			<g>
				<g>
					<path class="st1" d="M279.63,325.75h8.52c11.37,0,20.62-9.25,20.62-20.62c0-10.99-8.65-20-19.5-20.59
						c-0.12-0.02-0.25-0.03-0.37-0.03h-0.75c-1.27,0-2.3,1.03-2.3,2.3s1.03,2.3,2.3,2.3c8.83,0,16.02,7.19,16.02,16.02
						c0,8.83-7.19,16.02-16.02,16.02h-8.52c-1.27,0-2.3,1.03-2.3,2.3C277.33,324.72,278.36,325.75,279.63,325.75z"/>
				</g>
				<g>
					<g>
						<g>
							<path class="st6" d="M285.97,289.91h7.42c2.11,0,3.84-1.73,3.84-3.84l0,0c0-2.11-1.73-3.84-3.84-3.84h-7.42
								c-2.11,0-3.84,1.73-3.84,3.84l0,0C282.13,288.18,283.86,289.91,285.97,289.91z"/>
						</g>
						<g>
							<path class="st23" d="M293.39,282.66h-7.42c-2.04,0-3.7,1.61-3.82,3.62c0-0.07-0.02-0.15-0.02-0.22
								c0-2.11,1.73-3.84,3.84-3.84h7.42c2.11,0,3.84,1.73,3.84,3.84c0,0.08-0.02,0.15-0.02,0.22
								C297.09,284.28,295.43,282.66,293.39,282.66z"/>
						</g>
					</g>
				</g>
			</g>
			<path class="st6" d="M283.16,337.74h-66.54c-5.08,0-9.24-4.16-9.24-9.24v0c0-5.08,4.16-9.24,9.24-9.24h66.54
				c5.08,0,9.24,4.16,9.24,9.24v0C292.41,333.59,288.25,337.74,283.16,337.74z"/>
			<path class="st24" d="M216.62,320.13h66.54c4.94,0,8.99,3.93,9.22,8.81c0.01-0.14,0.02-0.29,0.02-0.43
				c0-5.08-4.16-9.24-9.24-9.24h-66.54c-5.08,0-9.24,4.16-9.24,9.24c0,0.15,0.02,0.29,0.02,0.43
				C207.63,324.05,211.68,320.13,216.62,320.13z"/>
			<path class="st6" d="M261.17,310.99h-24c-9.59,0-17.43-7.84-17.43-17.43l-4.36-37.72c0-9.59,7.84-17.43,17.43-17.43h34.17
				c9.59,0,17.43,7.84,17.43,17.43l-5.81,37.72C278.6,303.14,270.76,310.99,261.17,310.99z"/>
			<path class="st23" d="M232.81,239.14h34.17c9.41,0,17.13,7.57,17.4,16.92l0.03-0.22c0-9.59-7.84-17.43-17.43-17.43h-34.17
				c-9.59,0-17.43,7.84-17.43,17.43l0.02,0.27C215.65,246.73,223.38,239.14,232.81,239.14z"/>
			<path class="st1" d="M279.25,341.23h-58.71c-2.25,0-4.09-1.84-4.09-4.09v0c0-2.25,1.84-4.09,4.09-4.09h58.71
				c2.25,0,4.09,1.84,4.09,4.09v0C283.34,339.39,281.5,341.23,279.25,341.23z"/>
			<path class="st1" d="M264.88,349.26h-29.97c-1.55,0-2.81-1.27-2.81-2.81v-2.55c0-1.55,1.27-2.81,2.81-2.81h29.97
				c1.55,0,2.81,1.27,2.81,2.81v2.55C267.69,347.99,266.43,349.26,264.88,349.26z"/>
			<path class="st25" d="M220.54,333.31h58.71c2.2,0,4,1.77,4.07,3.96c0-0.04,0.01-0.09,0.01-0.13c0-2.25-1.84-4.09-4.09-4.09
				h-58.71c-2.25,0-4.09,1.84-4.09,4.09c0,0.04,0.01,0.09,0.01,0.13C216.53,335.08,218.33,333.31,220.54,333.31z"/>
			<path class="st20" d="M275.69,343.44H224.1c-1.13,0-2.05-0.92-2.05-2.05l0,0c0-1.13,0.92-2.05,2.05-2.05h51.59
				c1.13,0,2.05,0.92,2.05,2.05l0,0C277.74,342.52,276.82,343.44,275.69,343.44z"/>
			<path class="st26" d="M224.1,339.48h51.59c1.1,0,2,0.89,2.04,1.98c0-0.02,0.01-0.04,0.01-0.07c0-1.13-0.92-2.05-2.05-2.05H224.1
				c-1.13,0-2.05,0.92-2.05,2.05c0,0.02,0.01,0.04,0.01,0.07C222.09,340.37,222.99,339.48,224.1,339.48z"/>
			<path class="st21" d="M246.17,394.19v-6.35c0-2.05,1.67-3.72,3.72-3.72l0,0c2.05,0,3.72,1.67,3.72,3.72v6.35"/>
			<g>
				<path class="st20" d="M222.06,401.09c-0.55,0-1.08-0.32-1.32-0.86c-0.33-0.73,0-1.59,0.73-1.92c18.54-8.37,39.82-8.37,58.36,0
					c0.73,0.33,1.06,1.19,0.73,1.92c-0.33,0.73-1.19,1.06-1.92,0.73c-17.78-8.03-38.19-8.03-55.97,0
					C222.46,401.05,222.26,401.09,222.06,401.09z"/>
			</g>
			<path class="st1" d="M254.95,395.82h-9.53c-0.91,0-1.66-0.74-1.66-1.66v-1.5c0-0.91,0.74-1.66,1.66-1.66h9.53
				c0.91,0,1.66,0.74,1.66,1.66v1.5C256.6,395.08,255.86,395.82,254.95,395.82z"/>
			<path class="st20" d="M250.18,406.31L250.18,406.31c-0.56,0-1.02-0.46-1.02-1.02v-10.85c0-0.56,0.46-1.02,1.02-1.02l0,0
				c0.56,0,1.02,0.46,1.02,1.02v10.85C251.2,405.85,250.74,406.31,250.18,406.31z"/>
			<path class="st6" d="M250.18,412.9L250.18,412.9c-1.52,0-2.77-1.25-2.77-2.77v-5.24c0-1.52,1.25-2.77,2.77-2.77h0
				c1.52,0,2.77,1.25,2.77,2.77v5.24C252.96,411.65,251.71,412.9,250.18,412.9z"/>
			<g>
				<circle class="st6" cx="281.73" cy="402.72" r="5.23"/>
				<path class="st27" d="M281.73,397.62c2.87,0,5.19,2.31,5.23,5.17c0-0.02,0.01-0.04,0.01-0.07c0-2.89-2.34-5.23-5.23-5.23
					s-5.23,2.34-5.23,5.23c0,0.02,0.01,0.04,0.01,0.07C276.54,399.93,278.86,397.62,281.73,397.62z"/>
				<circle class="st28" cx="281.73" cy="402.72" r="3.12"/>
				<circle class="st20" cx="281.73" cy="402.72" r="1.25"/>
				<path class="st29" d="M281.73,401.54c0.68,0,1.23,0.54,1.25,1.22c0-0.01,0.01-0.02,0.01-0.03c0-0.69-0.56-1.25-1.25-1.25
					c-0.69,0-1.25,0.56-1.25,1.25c0,0.01,0.01,0.02,0.01,0.03C280.5,402.08,281.05,401.54,281.73,401.54z"/>
			</g>
			<g>
				<circle class="st6" cx="220.61" cy="402.72" r="5.23"/>
				<path class="st27" d="M220.61,397.62c2.87,0,5.19,2.31,5.23,5.17c0-0.02,0.01-0.04,0.01-0.07c0-2.89-2.34-5.23-5.23-5.23
					c-2.89,0-5.23,2.34-5.23,5.23c0,0.02,0.01,0.04,0.01,0.07C215.42,399.93,217.74,397.62,220.61,397.62z"/>
				<circle class="st28" cx="220.61" cy="402.72" r="3.12"/>
				<circle class="st20" cx="220.61" cy="402.72" r="1.25"/>
				<path class="st29" d="M220.61,401.54c0.68,0,1.23,0.54,1.25,1.22c0-0.01,0.01-0.02,0.01-0.03c0-0.69-0.56-1.25-1.25-1.25
					c-0.69,0-1.25,0.56-1.25,1.25c0,0.01,0.01,0.02,0.01,0.03C219.38,402.08,219.93,401.54,220.61,401.54z"/>
			</g>
			<path class="st1" d="M259.16,279.45h-18.53c-4.69,0-8.54-3.84-8.54-8.54v0c0-4.69,3.84-8.54,8.54-8.54h18.53
				c4.69,0,8.54,3.84,8.54,8.54v0C267.69,275.61,263.85,279.45,259.16,279.45z"/>
			<path class="st30" d="M259.16,262.38h-18.53c-4.69,0-8.54,3.84-8.54,8.54v0c0,0.05,0.01,0.09,0.01,0.14
				c0.08-4.63,3.88-8.39,8.53-8.39h18.53c4.65,0,8.45,3.76,8.53,8.39c0-0.05,0.01-0.09,0.01-0.14v0
				C267.69,266.22,263.85,262.38,259.16,262.38z"/>
			<path class="st31" d="M251.16,337.14h-2.52c-1.53,0-2.79-1.26-2.79-2.79v-62.73c0-1.53,1.26-2.79,2.79-2.79h2.52
				c1.53,0,2.79,1.26,2.79,2.79v62.73C253.94,335.88,252.69,337.14,251.16,337.14z"/>
			<g>
				<path class="st32" d="M252.5,274.85h-5.22c-0.32,0-0.57-0.26-0.57-0.57v-0.61c0-0.32,0.26-0.57,0.57-0.57h5.22
					c0.32,0,0.57,0.26,0.57,0.57v0.61C253.08,274.59,252.82,274.85,252.5,274.85z"/>
				<path class="st33" d="M252.5,274.76h-5.22c-0.32,0-0.57-0.26-0.57-0.57v-0.52c0-0.32,0.26-0.57,0.57-0.57h5.22
					c0.32,0,0.57,0.26,0.57,0.57v0.52C253.08,274.5,252.82,274.76,252.5,274.76z"/>
			</g>
			<g>
				<path class="st32" d="M252.5,279.69h-5.22c-0.32,0-0.57-0.26-0.57-0.57v-0.61c0-0.32,0.26-0.57,0.57-0.57h5.22
					c0.32,0,0.57,0.26,0.57,0.57v0.61C253.08,279.43,252.82,279.69,252.5,279.69z"/>
				<path class="st33" d="M252.5,279.6h-5.22c-0.32,0-0.57-0.26-0.57-0.57v-0.52c0-0.32,0.26-0.57,0.57-0.57h5.22
					c0.32,0,0.57,0.26,0.57,0.57v0.52C253.08,279.34,252.82,279.6,252.5,279.6z"/>
			</g>
			<g>
				<path class="st32" d="M252.5,284.29h-5.22c-0.32,0-0.57-0.26-0.57-0.57v-0.61c0-0.32,0.26-0.57,0.57-0.57h5.22
					c0.32,0,0.57,0.26,0.57,0.57v0.61C253.08,284.03,252.82,284.29,252.5,284.29z"/>
				<path class="st33" d="M252.5,284.2h-5.22c-0.32,0-0.57-0.26-0.57-0.57v-0.52c0-0.32,0.26-0.57,0.57-0.57h5.22
					c0.32,0,0.57,0.26,0.57,0.57v0.52C253.08,283.94,252.82,284.2,252.5,284.2z"/>
			</g>
			<g>
				<path class="st32" d="M252.5,288.89h-5.22c-0.32,0-0.57-0.26-0.57-0.57v-0.61c0-0.32,0.26-0.57,0.57-0.57h5.22
					c0.32,0,0.57,0.26,0.57,0.57v0.61C253.08,288.63,252.82,288.89,252.5,288.89z"/>
				<path class="st33" d="M252.5,288.8h-5.22c-0.32,0-0.57-0.26-0.57-0.57v-0.52c0-0.32,0.26-0.57,0.57-0.57h5.22
					c0.32,0,0.57,0.26,0.57,0.57v0.52C253.08,288.54,252.82,288.8,252.5,288.8z"/>
			</g>
			<g>
				<path class="st32" d="M252.5,293.49h-5.22c-0.32,0-0.57-0.26-0.57-0.57v-0.61c0-0.32,0.26-0.57,0.57-0.57h5.22
					c0.32,0,0.57,0.26,0.57,0.57v0.61C253.08,293.23,252.82,293.49,252.5,293.49z"/>
				<path class="st33" d="M252.5,293.4h-5.22c-0.32,0-0.57-0.26-0.57-0.57v-0.52c0-0.32,0.26-0.57,0.57-0.57h5.22
					c0.32,0,0.57,0.26,0.57,0.57v0.52C253.08,293.14,252.82,293.4,252.5,293.4z"/>
			</g>
			<g>
				<path class="st32" d="M252.5,298.09h-5.22c-0.32,0-0.57-0.26-0.57-0.57v-0.61c0-0.32,0.26-0.57,0.57-0.57h5.22
					c0.32,0,0.57,0.26,0.57,0.57v0.61C253.08,297.83,252.82,298.09,252.5,298.09z"/>
				<path class="st33" d="M252.5,298h-5.22c-0.32,0-0.57-0.26-0.57-0.57v-0.52c0-0.32,0.26-0.57,0.57-0.57h5.22
					c0.32,0,0.57,0.26,0.57,0.57v0.52C253.08,297.74,252.82,298,252.5,298z"/>
			</g>
			<g>
				<path class="st32" d="M252.5,302.69h-5.22c-0.32,0-0.57-0.26-0.57-0.57v-0.61c0-0.32,0.26-0.57,0.57-0.57h5.22
					c0.32,0,0.57,0.26,0.57,0.57v0.61C253.08,302.43,252.82,302.69,252.5,302.69z"/>
				<path class="st33" d="M252.5,302.6h-5.22c-0.32,0-0.57-0.26-0.57-0.57v-0.52c0-0.32,0.26-0.57,0.57-0.57h5.22
					c0.32,0,0.57,0.26,0.57,0.57v0.52C253.08,302.34,252.82,302.6,252.5,302.6z"/>
			</g>
			<g>
				<path class="st32" d="M252.5,307.29h-5.22c-0.32,0-0.57-0.26-0.57-0.57v-0.61c0-0.32,0.26-0.57,0.57-0.57h5.22
					c0.32,0,0.57,0.26,0.57,0.57v0.61C253.08,307.03,252.82,307.29,252.5,307.29z"/>
				<path class="st33" d="M252.5,307.2h-5.22c-0.32,0-0.57-0.26-0.57-0.57v-0.52c0-0.32,0.26-0.57,0.57-0.57h5.22
					c0.32,0,0.57,0.26,0.57,0.57v0.52C253.08,306.94,252.82,307.2,252.5,307.2z"/>
			</g>
			<g>
				<path class="st32" d="M252.5,311.88h-5.22c-0.32,0-0.57-0.26-0.57-0.57v-0.61c0-0.32,0.26-0.57,0.57-0.57h5.22
					c0.32,0,0.57,0.26,0.57,0.57v0.61C253.08,311.63,252.82,311.88,252.5,311.88z"/>
				<path class="st33" d="M252.5,311.8h-5.22c-0.32,0-0.57-0.26-0.57-0.57v-0.52c0-0.32,0.26-0.57,0.57-0.57h5.22
					c0.32,0,0.57,0.26,0.57,0.57v0.52C253.08,311.54,252.82,311.8,252.5,311.8z"/>
			</g>
			<g>
				<path class="st32" d="M252.5,316.48h-5.22c-0.32,0-0.57-0.26-0.57-0.57v-0.61c0-0.32,0.26-0.57,0.57-0.57h5.22
					c0.32,0,0.57,0.26,0.57,0.57v0.61C253.08,316.23,252.82,316.48,252.5,316.48z"/>
				<path class="st33" d="M252.5,316.39h-5.22c-0.32,0-0.57-0.26-0.57-0.57v-0.52c0-0.32,0.26-0.57,0.57-0.57h5.22
					c0.32,0,0.57,0.26,0.57,0.57v0.52C253.08,316.14,252.82,316.39,252.5,316.39z"/>
			</g>
			<g>
				<path class="st32" d="M252.5,321.08h-5.22c-0.32,0-0.57-0.26-0.57-0.57v-0.61c0-0.32,0.26-0.57,0.57-0.57h5.22
					c0.32,0,0.57,0.26,0.57,0.57v0.61C253.08,320.82,252.82,321.08,252.5,321.08z"/>
				<path class="st33" d="M252.5,320.99h-5.22c-0.32,0-0.57-0.26-0.57-0.57v-0.52c0-0.32,0.26-0.57,0.57-0.57h5.22
					c0.32,0,0.57,0.26,0.57,0.57v0.52C253.08,320.74,252.82,320.99,252.5,320.99z"/>
			</g>
			<g>
				<path class="st32" d="M252.5,325.68h-5.22c-0.32,0-0.57-0.26-0.57-0.57v-0.61c0-0.32,0.26-0.57,0.57-0.57h5.22
					c0.32,0,0.57,0.26,0.57,0.57v0.61C253.08,325.42,252.82,325.68,252.5,325.68z"/>
				<path class="st33" d="M252.5,325.59h-5.22c-0.32,0-0.57-0.26-0.57-0.57v-0.52c0-0.32,0.26-0.57,0.57-0.57h5.22
					c0.32,0,0.57,0.26,0.57,0.57v0.52C253.08,325.34,252.82,325.59,252.5,325.59z"/>
			</g>
			<g>
				<path class="st32" d="M252.5,330.28h-5.22c-0.32,0-0.57-0.26-0.57-0.57v-0.61c0-0.32,0.26-0.57,0.57-0.57h5.22
					c0.32,0,0.57,0.26,0.57,0.57v0.61C253.08,330.02,252.82,330.28,252.5,330.28z"/>
				<path class="st33" d="M252.5,330.19h-5.22c-0.32,0-0.57-0.26-0.57-0.57v-0.52c0-0.32,0.26-0.57,0.57-0.57h5.22
					c0.32,0,0.57,0.26,0.57,0.57v0.52C253.08,329.93,252.82,330.19,252.5,330.19z"/>
			</g>
		</g>
	</g>
	<g>
		<g>
			<path class="st34" d="M334.14,269.47c-2.75,0-4.99-2.24-4.99-4.99c0-2.75,2.24-4.99,4.99-4.99s4.99,2.24,4.99,4.99
				C339.13,267.23,336.89,269.47,334.14,269.47z M334.14,260.97c-1.94,0-3.51,1.58-3.51,3.51s1.58,3.51,3.51,3.51
				s3.51-1.58,3.51-3.51S336.08,260.97,334.14,260.97z"/>
		</g>
		<path class="st6" d="M334.03,257.45v10.03c0,4.45-3.64,8.09-8.09,8.09l0,0c-4.45,0-8.09-3.64-8.09-8.09v-10.03H334.03z"/>
		<path class="st34" d="M333.24,276.67h-14.6c-0.5,0-0.9-0.41-0.9-0.9v-0.4c0-0.5,0.41-0.9,0.9-0.9h14.6c0.5,0,0.9,0.41,0.9,0.9v0.4
			C334.14,276.26,333.74,276.67,333.24,276.67z"/>
	</g>
	<g>
		<g>
			<path class="st35" d="M197.41,100.44H90.28l-0.1-0.48c-0.16-0.79-0.24-1.6-0.24-2.41c0-6.64,5.4-12.05,12.05-12.05
				c2.53,0,4.99,0.8,7.03,2.27c2.85-14.31,15.32-24.59,30.03-24.59c12.78,0,24.19,7.93,28.67,19.83c3.33-3.04,7.6-4.71,12.14-4.71
				c9.94,0,18.03,8.09,18.03,18.03c0,1.21-0.12,2.42-0.36,3.61L197.41,100.44z M91.27,99.24h105.15c0.16-0.95,0.25-1.92,0.25-2.89
				c0-9.28-7.55-16.82-16.82-16.82c-4.53,0-8.78,1.78-11.97,5l-0.69,0.69l-0.32-0.92c-4.07-11.9-15.26-19.9-27.84-19.9
				c-14.45,0-26.66,10.33-29.02,24.57l-0.18,1.06l-0.81-0.7c-1.97-1.69-4.47-2.62-7.05-2.62c-5.98,0-10.84,4.86-10.84,10.84
				C91.14,98.11,91.19,98.68,91.27,99.24z"/>
		</g>
		<g>
			<path class="st35" d="M145,94.76h-9.71c-1.28,0-2.32-1.04-2.32-2.32V86.5h-2.56c-0.88,0-1.63-0.5-1.96-1.31s-0.16-1.7,0.46-2.32
				l9.74-9.74c0.8-0.8,2.2-0.8,3.01,0l9.74,9.74c0.62,0.62,0.8,1.51,0.46,2.32s-1.09,1.31-1.96,1.31h-2.56v5.94
				C147.32,93.72,146.28,94.76,145,94.76z M140.15,73.72c-0.25,0-0.48,0.1-0.65,0.27l-9.74,9.74c-0.27,0.27-0.35,0.65-0.2,1
				c0.15,0.36,0.46,0.57,0.85,0.57h3.77v7.15c0,0.61,0.5,1.11,1.11,1.11H145c0.61,0,1.11-0.5,1.11-1.11v-7.15h3.77
				c0.38,0,0.7-0.21,0.85-0.57c0.15-0.36,0.07-0.73-0.2-1l-9.74-9.74C140.62,73.81,140.39,73.72,140.15,73.72z"/>
		</g>
	</g>
	<g>
		<g>
			<path class="st35" d="M312.96,56h-43.92L269,55.8c-0.07-0.33-0.1-0.66-0.1-0.99c0-2.72,2.21-4.94,4.94-4.94
				c1.04,0,2.04,0.33,2.88,0.93c1.17-5.86,6.28-10.08,12.31-10.08c5.24,0,9.91,3.25,11.75,8.13c1.36-1.25,3.12-1.93,4.98-1.93
				c4.07,0,7.39,3.32,7.39,7.39c0,0.5-0.05,0.99-0.15,1.48L312.96,56z M269.45,55.5h43.1c0.07-0.39,0.1-0.79,0.1-1.18
				c0-3.8-3.09-6.9-6.9-6.9c-1.86,0-3.6,0.73-4.9,2.05l-0.28,0.28l-0.13-0.38c-1.67-4.88-6.26-8.16-11.41-8.16
				c-5.92,0-10.93,4.24-11.9,10.07l-0.07,0.43l-0.33-0.29c-0.81-0.69-1.83-1.07-2.89-1.07c-2.45,0-4.44,1.99-4.44,4.44
				C269.4,55.04,269.42,55.27,269.45,55.5z"/>
		</g>
		<g>
			<path class="st35" d="M291.48,53.67h-3.98c-0.52,0-0.95-0.43-0.95-0.95v-2.44h-1.05c-0.36,0-0.67-0.21-0.81-0.54
				c-0.14-0.33-0.06-0.7,0.19-0.95l3.99-3.99c0.33-0.33,0.9-0.33,1.23,0l3.99,3.99c0.25,0.25,0.33,0.62,0.19,0.95
				c-0.14,0.33-0.45,0.54-0.81,0.54h-1.05v2.44C292.43,53.24,292,53.67,291.48,53.67z M289.49,45.04c-0.1,0-0.2,0.04-0.27,0.11
				l-3.99,3.99c-0.11,0.11-0.14,0.26-0.08,0.41c0.06,0.15,0.19,0.23,0.35,0.23h1.55v2.93c0,0.25,0.2,0.45,0.45,0.45h3.98
				c0.25,0,0.45-0.2,0.45-0.45v-2.93h1.55c0.16,0,0.29-0.09,0.35-0.23c0.06-0.15,0.03-0.3-0.08-0.41l-3.99-3.99
				C289.68,45.08,289.59,45.04,289.49,45.04z"/>
		</g>
	</g>
	<g>
		<g>
			<path class="st35" d="M404.52,319.69h-76.4l-0.07-0.34c-0.11-0.57-0.17-1.14-0.17-1.72c0-4.74,3.85-8.59,8.59-8.59
				c1.8,0,3.56,0.57,5.01,1.62c2.03-10.2,10.93-17.53,21.41-17.53c9.12,0,17.25,5.66,20.44,14.14c2.37-2.17,5.42-3.36,8.66-3.36
				c7.09,0,12.86,5.77,12.86,12.86c0,0.86-0.09,1.73-0.26,2.57L404.52,319.69z M328.83,318.83h74.98c0.12-0.68,0.18-1.37,0.18-2.06
				c0-6.61-5.38-12-12-12c-3.23,0-6.26,1.27-8.53,3.57l-0.49,0.49l-0.22-0.66c-2.9-8.49-10.88-14.19-19.85-14.19
				c-10.3,0-19.01,7.37-20.69,17.52l-0.13,0.75l-0.58-0.5c-1.4-1.2-3.19-1.87-5.03-1.87c-4.26,0-7.73,3.47-7.73,7.73
				C328.74,318.02,328.77,318.43,328.83,318.83z"/>
		</g>
		<g>
			<path class="st35" d="M367.15,315.64h-6.93c-0.91,0-1.65-0.74-1.65-1.65v-4.24h-1.83c-0.62,0-1.16-0.36-1.4-0.94
				c-0.24-0.58-0.11-1.21,0.33-1.65l6.94-6.94c0.57-0.57,1.57-0.57,2.14,0l6.94,6.94c0.44,0.44,0.57,1.07,0.33,1.65
				c-0.24,0.58-0.78,0.94-1.4,0.94h-1.83v4.24C368.8,314.89,368.06,315.64,367.15,315.64z M363.68,300.63
				c-0.18,0-0.34,0.07-0.46,0.19l-6.94,6.94c-0.19,0.19-0.25,0.46-0.14,0.71c0.11,0.25,0.33,0.4,0.61,0.4h2.69v5.1
				c0,0.44,0.35,0.79,0.79,0.79h6.93c0.44,0,0.79-0.35,0.79-0.79v-5.1h2.69c0.27,0,0.5-0.15,0.61-0.4c0.11-0.25,0.05-0.52-0.14-0.71
				l-6.94-6.94C364.02,300.7,363.86,300.63,363.68,300.63z"/>
		</g>
	</g>
	<rect x="65.11" y="90.1" class="st36" width="149.24" height="0.73"/>
	<g>
		<path class="st36" d="M206.83,181.16H72.63c-4.15,0-7.52-3.37-7.52-7.52V90.1h149.24v83.54
			C214.35,177.79,210.98,181.16,206.83,181.16z"/>
		<rect x="78.45" y="109.24" class="st36" width="79.47" height="28.53"/>
		<rect x="78.45" y="143.08" class="st36" width="27.94" height="8.85"/>
		<rect x="110.59" y="143.08" class="st36" width="47.33" height="8.85"/>
		<rect x="163.19" y="109.24" class="st36" width="43.26" height="12.35"/>
		<rect x="78.45" y="157.25" class="st36" width="128" height="12.35"/>
		<rect x="163.19" y="124.82" class="st36" width="43.26" height="28.1"/>
		<rect x="65.11" y="90.1" class="st36" width="149.24" height="14.89"/>
		<circle class="st36" cx="71.1" cy="97.17" r="3.09"/>
		<path class="st6" d="M71.1,100.26c-1.69,0-3.07-1.37-3.08-3.06c0,0.01,0,0.02,0,0.03c0,1.74,1.38,3.15,3.09,3.15
			s3.09-1.41,3.09-3.15c0-0.01,0-0.02,0-0.03C74.17,98.89,72.8,100.26,71.1,100.26z"/>
		<circle class="st36" cx="78.45" cy="97.17" r="3.09"/>
		<path class="st6" d="M78.45,100.26c-1.69,0-3.07-1.37-3.08-3.06c0,0.01,0,0.02,0,0.03c0,1.74,1.38,3.15,3.09,3.15
			s3.09-1.41,3.09-3.15c0-0.01,0-0.02,0-0.03C81.52,98.89,80.14,100.26,78.45,100.26z"/>
		<circle class="st36" cx="85.74" cy="97.17" r="3.09"/>
		<path class="st6" d="M85.74,100.26c-1.69,0-3.07-1.37-3.08-3.06c0,0.01,0,0.02,0,0.03c0,1.74,1.38,3.15,3.09,3.15
			s3.09-1.41,3.09-3.15c0-0.01,0-0.02,0-0.03C88.8,98.89,87.43,100.26,85.74,100.26z"/>
		<rect x="65.11" y="104.71" class="st37" width="149.24" height="0.29"/>
		<circle class="st6" cx="71.1" cy="97.17" r="2.45"/>
		<circle class="st7" cx="78.45" cy="97.17" r="2.45"/>
		<circle class="st9" cx="85.74" cy="97.17" r="2.45"/>
		<path class="st36" d="M71.1,175.27L71.1,175.27c-1.35,0-2.45-1.1-2.45-2.45v-63.25c0-1.35,1.1-2.45,2.45-2.45l0,0
			c1.35,0,2.45,1.1,2.45,2.45v63.25C73.55,174.17,72.45,175.27,71.1,175.27z"/>
		<path class="st6" d="M70.93,127.12L70.93,127.12c-0.54,0-0.98-0.44-0.98-0.98v-15.93c0-0.54,0.44-0.98,0.98-0.98l0,0
			c0.54,0,0.98,0.44,0.98,0.98v15.93C71.91,126.68,71.47,127.12,70.93,127.12z"/>
		<line class="st38" x1="81.54" y1="113.32" x2="115" y2="113.32"/>
		<line class="st38" x1="118.18" y1="113.32" x2="123.63" y2="113.32"/>
		<line class="st38" x1="129.63" y1="113.32" x2="153.38" y2="113.32"/>
		<line class="st38" x1="81.54" y1="116.75" x2="122" y2="116.75"/>
		<line class="st38" x1="126" y1="116.13" x2="142.45" y2="116.13"/>
		<line class="st38" x1="145.5" y1="116.13" x2="153.88" y2="116.13"/>
		<line class="st38" x1="83.29" y1="121" x2="131.13" y2="121"/>
		<line class="st38" x1="136.75" y1="121" x2="149.69" y2="121"/>
		<line class="st38" x1="153.88" y1="124.82" x2="116.88" y2="124.82"/>
		<line class="st38" x1="132.75" y1="130" x2="81.54" y2="130"/>
		<line class="st38" x1="116.88" y1="133.25" x2="154.75" y2="133.25"/>
		<line class="st38" x1="120.9" y1="134.88" x2="89.75" y2="134.88"/>
		<line class="st38" x1="81.54" y1="124.82" x2="95.13" y2="124.82"/>
		<line class="st38" x1="103.38" y1="145.13" x2="94" y2="145.13"/>
		<line class="st38" x1="102.5" y1="149.25" x2="80.88" y2="149.25"/>
		<line class="st38" x1="113" y1="145.13" x2="116.88" y2="145.13"/>
		<line class="st38" x1="120.06" y1="145.13" x2="123.94" y2="145.13"/>
		<line class="st38" x1="127.13" y1="145.13" x2="131" y2="145.13"/>
		<line class="st38" x1="134.19" y1="145.13" x2="138.06" y2="145.13"/>
		<line class="st38" x1="141.25" y1="145.13" x2="145.13" y2="145.13"/>
		<line class="st38" x1="148.31" y1="145.13" x2="152.19" y2="145.13"/>
		<line class="st38" x1="113" y1="148.14" x2="115.5" y2="148.14"/>
		<line class="st38" x1="118.81" y1="148.14" x2="121.31" y2="148.14"/>
		<line class="st38" x1="124.63" y1="148.14" x2="127.13" y2="148.14"/>
		<line class="st38" x1="130.44" y1="148.14" x2="132.94" y2="148.14"/>
		<line class="st38" x1="136.25" y1="148.14" x2="138.75" y2="148.14"/>
		<line class="st38" x1="142.06" y1="148.14" x2="144.56" y2="148.14"/>
		<line class="st38" x1="147.88" y1="148.14" x2="150.38" y2="148.14"/>
		<polyline class="st38" points="83.93,160.41 81.18,163.16 83.83,165.8 		"/>
		<polyline class="st38" points="86.68,160.41 83.93,163.16 86.58,165.8 		"/>
		<polyline class="st38" points="170.42,112.72 167.67,115.47 170.31,118.11 		"/>
		<line class="st38" x1="166.29" y1="128.02" x2="188.07" y2="128.02"/>
		<line class="st38" x1="166.29" y1="130.69" x2="174.85" y2="130.69"/>
		<line class="st38" x1="166.29" y1="134.88" x2="174.85" y2="134.88"/>
		<line class="st38" x1="166.29" y1="139.06" x2="174.85" y2="139.06"/>
		<line class="st38" x1="166.29" y1="143.25" x2="174.85" y2="143.25"/>
		<line class="st38" x1="200.25" y1="133.25" x2="194.45" y2="133.25"/>
		<line class="st38" x1="200.25" y1="135.63" x2="194.45" y2="135.63"/>
		<line class="st38" x1="200.25" y1="138.01" x2="194.45" y2="138.01"/>
		<line class="st38" x1="200.25" y1="140.39" x2="194.45" y2="140.39"/>
		<line class="st38" x1="200.25" y1="142.77" x2="194.45" y2="142.77"/>
		<line class="st38" x1="200.25" y1="145.15" x2="194.45" y2="145.15"/>
		<line class="st38" x1="200.25" y1="147.54" x2="194.45" y2="147.54"/>
		<line class="st38" x1="200.25" y1="149.92" x2="194.45" y2="149.92"/>
		<line class="st38" x1="93.5" y1="160.41" x2="152.19" y2="160.41"/>
		<line class="st38" x1="93.5" y1="163.1" x2="129.06" y2="163.1"/>
		<line class="st38" x1="93.5" y1="166.9" x2="129.06" y2="166.9"/>
	</g>
	<g>
		<path class="st36" d="M182.52,257.04h-55.53c-4.15,0-7.52-3.37-7.52-7.52v-58.75h70.57v58.75
			C190.03,253.68,186.67,257.04,182.52,257.04z"/>
		<rect x="129.18" y="204.7" class="st36" width="57.84" height="20.76"/>
		<rect x="129.18" y="229.34" class="st36" width="20.34" height="6.44"/>
		<rect x="152.56" y="229.34" class="st36" width="34.45" height="6.44"/>
		<rect x="119.47" y="190.78" class="st36" width="70.57" height="10.84"/>
		<circle class="st36" cx="123.83" cy="195.92" r="2.25"/>
		<path class="st6" d="M123.83,198.17c-1.23,0-2.23-0.99-2.24-2.22c0,0.01,0,0.02,0,0.02c0,1.27,1.01,2.29,2.25,2.29
			s2.25-1.03,2.25-2.29c0-0.01,0-0.02,0-0.02C126.06,197.18,125.06,198.17,123.83,198.17z"/>
		<circle class="st36" cx="129.18" cy="195.92" r="2.25"/>
		<path class="st6" d="M129.18,198.17c-1.23,0-2.23-0.99-2.24-2.22c0,0.01,0,0.02,0,0.02c0,1.27,1.01,2.29,2.25,2.29
			c1.24,0,2.25-1.03,2.25-2.29c0-0.01,0-0.02,0-0.02C131.41,197.18,130.41,198.17,129.18,198.17z"/>
		<circle class="st36" cx="134.48" cy="195.92" r="2.25"/>
		<path class="st6" d="M134.48,198.17c-1.23,0-2.23-0.99-2.24-2.22c0,0.01,0,0.02,0,0.02c0,1.27,1.01,2.29,2.25,2.29
			c1.24,0,2.25-1.03,2.25-2.29c0-0.01,0-0.02,0-0.02C136.71,197.18,135.71,198.17,134.48,198.17z"/>
		<rect x="119.47" y="201.4" class="st37" width="70.57" height="0.21"/>
		<circle class="st6" cx="123.83" cy="195.92" r="1.78"/>
		<circle class="st7" cx="129.18" cy="195.92" r="1.78"/>
		<circle class="st9" cx="134.48" cy="195.92" r="1.78"/>
		<path class="st36" d="M124.03,252.76h-0.4c-0.87,0-1.58-0.71-1.58-1.58v-46.43c0-0.87,0.71-1.58,1.58-1.58h0.4
			c0.87,0,1.58,0.71,1.58,1.58v46.43C125.61,252.05,124.9,252.76,124.03,252.76z"/>
		<path class="st6" d="M123.78,217.72h-0.16c-0.35,0-0.63-0.28-0.63-0.63v-11.75c0-0.35,0.28-0.63,0.63-0.63h0.16
			c0.35,0,0.63,0.28,0.63,0.63v11.75C124.42,217.43,124.13,217.72,123.78,217.72z"/>
		<line class="st38" x1="131.42" y1="207.67" x2="155.78" y2="207.67"/>
		<line class="st38" x1="158.09" y1="207.67" x2="162.05" y2="207.67"/>
		<line class="st38" x1="166.42" y1="207.67" x2="183.71" y2="207.67"/>
		<line class="st38" x1="131.42" y1="210.17" x2="160.87" y2="210.17"/>
		<line class="st38" x1="163.78" y1="209.72" x2="175.75" y2="209.72"/>
		<line class="st38" x1="177.97" y1="209.72" x2="184.07" y2="209.72"/>
		<line class="st38" x1="132.7" y1="213.26" x2="167.51" y2="213.26"/>
		<line class="st38" x1="171.61" y1="213.26" x2="181.02" y2="213.26"/>
		<line class="st38" x1="184.07" y1="216.04" x2="157.14" y2="216.04"/>
		<line class="st38" x1="168.7" y1="219.81" x2="131.42" y2="219.81"/>
		<line class="st38" x1="157.14" y1="222.18" x2="184.71" y2="222.18"/>
		<line class="st38" x1="160.07" y1="223.36" x2="137.4" y2="223.36"/>
		<line class="st38" x1="131.42" y1="216.04" x2="141.31" y2="216.04"/>
		<line class="st38" x1="147.32" y1="230.82" x2="140.49" y2="230.82"/>
		<line class="st38" x1="146.68" y1="233.82" x2="130.94" y2="233.82"/>
		<line class="st38" x1="154.32" y1="230.82" x2="157.14" y2="230.82"/>
		<line class="st38" x1="159.46" y1="230.82" x2="162.28" y2="230.82"/>
		<line class="st38" x1="164.6" y1="230.82" x2="167.42" y2="230.82"/>
		<line class="st38" x1="169.74" y1="230.82" x2="172.56" y2="230.82"/>
		<line class="st38" x1="174.88" y1="230.82" x2="177.7" y2="230.82"/>
		<line class="st38" x1="180.02" y1="230.82" x2="182.84" y2="230.82"/>
		<line class="st38" x1="154.32" y1="233.01" x2="156.14" y2="233.01"/>
		<line class="st38" x1="158.55" y1="233.01" x2="160.37" y2="233.01"/>
		<line class="st38" x1="162.78" y1="233.01" x2="164.6" y2="233.01"/>
		<line class="st38" x1="167.01" y1="233.01" x2="168.83" y2="233.01"/>
		<line class="st38" x1="171.24" y1="233.01" x2="173.06" y2="233.01"/>
		<line class="st38" x1="175.47" y1="233.01" x2="177.29" y2="233.01"/>
		<line class="st38" x1="179.7" y1="233.01" x2="181.52" y2="233.01"/>
		<polyline class="st38" points="133.17,241.94 131.16,243.94 133.09,245.87 		"/>
		<polyline class="st38" points="135.17,241.94 133.17,243.94 135.09,245.87 		"/>
		<line class="st38" x1="140.13" y1="241.94" x2="182.84" y2="241.94"/>
		<line class="st38" x1="140.13" y1="243.91" x2="166.01" y2="243.91"/>
		<line class="st38" x1="140.13" y1="246.67" x2="166.01" y2="246.67"/>
	</g>
	<g>
		<path class="st36" d="M366.85,255.35h-41.23c-4.15,0-7.52-3.37-7.52-7.52v-21.06h56.27v21.06
			C374.37,251.99,371.01,255.35,366.85,255.35z"/>
		<rect x="323.91" y="235.11" class="st36" width="32.7" height="12.42"/>
		<rect x="318.11" y="226.78" class="st36" width="56.27" height="6.48"/>
		<circle class="st36" cx="320.71" cy="229.85" r="1.34"/>
		<path class="st6" d="M320.71,231.2c-0.74,0-1.34-0.59-1.34-1.33c0,0,0,0.01,0,0.01c0,0.76,0.6,1.37,1.34,1.37
			c0.74,0,1.34-0.61,1.34-1.37c0,0,0-0.01,0-0.01C322.05,230.6,321.45,231.2,320.71,231.2z"/>
		<circle class="st36" cx="323.91" cy="229.85" r="1.34"/>
		<path class="st6" d="M323.91,231.2c-0.74,0-1.34-0.59-1.34-1.33c0,0,0,0.01,0,0.01c0,0.76,0.6,1.37,1.34,1.37s1.34-0.61,1.34-1.37
			c0,0,0-0.01,0-0.01C325.25,230.6,324.65,231.2,323.91,231.2z"/>
		<circle class="st36" cx="327.08" cy="229.85" r="1.34"/>
		<path class="st6" d="M327.08,231.2c-0.74,0-1.34-0.59-1.34-1.33c0,0,0,0.01,0,0.01c0,0.76,0.6,1.37,1.34,1.37s1.34-0.61,1.34-1.37
			c0,0,0-0.01,0-0.01C328.42,230.6,327.82,231.2,327.08,231.2z"/>
		<rect x="318.11" y="233.13" class="st37" width="56.27" height="0.12"/>
		<circle class="st6" cx="320.71" cy="229.85" r="1.07"/>
		<circle class="st7" cx="323.91" cy="229.85" r="1.07"/>
		<circle class="st9" cx="327.08" cy="229.85" r="1.07"/>
		<path class="st36" d="M320.71,252.79L320.71,252.79c-0.59,0-1.07-0.48-1.07-1.07v-16.48c0-0.59,0.48-1.07,1.07-1.07l0,0
			c0.59,0,1.07,0.48,1.07,1.07v16.48C321.78,252.31,321.3,252.79,320.71,252.79z"/>
		<path class="st6" d="M320.64,242.89L320.64,242.89c-0.23,0-0.43-0.19-0.43-0.43v-6.93c0-0.23,0.19-0.43,0.43-0.43l0,0
			c0.23,0,0.43,0.19,0.43,0.43v6.93C321.06,242.7,320.87,242.89,320.64,242.89z"/>
		<g>
			<g>
				<path class="st39" d="M335.42,236.44h-10.29c-0.1,0-0.17-0.08-0.17-0.17c0-0.1,0.08-0.17,0.17-0.17h10.29
					c0.1,0,0.17,0.08,0.17,0.17C335.6,236.36,335.52,236.44,335.42,236.44z"/>
			</g>
			<g>
				<path class="st39" d="M337.62,236.44h-1.38c-0.1,0-0.17-0.08-0.17-0.17c0-0.1,0.08-0.17,0.17-0.17h1.38
					c0.1,0,0.17,0.08,0.17,0.17C337.79,236.36,337.71,236.44,337.62,236.44z"/>
			</g>
			<g>
				<path class="st39" d="M351.63,236.44h-12.48c-0.1,0-0.17-0.08-0.17-0.17c0-0.1,0.08-0.17,0.17-0.17h12.48
					c0.1,0,0.17,0.08,0.17,0.17C351.8,236.36,351.72,236.44,351.63,236.44z"/>
			</g>
			<g>
				<path class="st39" d="M337.2,237.31h-12.07c-0.1,0-0.17-0.08-0.17-0.17s0.08-0.17,0.17-0.17h12.07c0.1,0,0.17,0.08,0.17,0.17
					S337.3,237.31,337.2,237.31z"/>
			</g>
			<g>
				<path class="st39" d="M348.85,237.15h-10.63c-0.1,0-0.17-0.08-0.17-0.17c0-0.1,0.08-0.17,0.17-0.17h10.63
					c0.1,0,0.17,0.08,0.17,0.17C349.02,237.07,348.94,237.15,348.85,237.15z"/>
			</g>
			<g>
				<path class="st39" d="M351.75,237.15h-2.13c-0.1,0-0.17-0.08-0.17-0.17c0-0.1,0.08-0.17,0.17-0.17h2.13
					c0.1,0,0.17,0.08,0.17,0.17C351.93,237.07,351.85,237.15,351.75,237.15z"/>
			</g>
			<g>
				<path class="st39" d="M339.53,238.39h-13.95c-0.1,0-0.17-0.08-0.17-0.17s0.08-0.17,0.17-0.17h13.95c0.1,0,0.17,0.08,0.17,0.17
					S339.62,238.39,339.53,238.39z"/>
			</g>
			<g>
				<path class="st39" d="M350.69,238.39h-3.29c-0.1,0-0.17-0.08-0.17-0.17s0.08-0.17,0.17-0.17h3.29c0.1,0,0.17,0.08,0.17,0.17
					S350.79,238.39,350.69,238.39z"/>
			</g>
			<g>
				<path class="st39" d="M351.75,239.36H335.9c-0.1,0-0.17-0.08-0.17-0.17s0.08-0.17,0.17-0.17h15.85c0.1,0,0.17,0.08,0.17,0.17
					S351.85,239.36,351.75,239.36z"/>
			</g>
			<g>
				<path class="st39" d="M339.94,240.68h-14.81c-0.1,0-0.17-0.08-0.17-0.17s0.08-0.17,0.17-0.17h14.81c0.1,0,0.17,0.08,0.17,0.17
					S340.04,240.68,339.94,240.68z"/>
			</g>
			<g>
				<path class="st39" d="M351.98,241.51H335.9c-0.1,0-0.17-0.08-0.17-0.17s0.08-0.17,0.17-0.17h16.08c0.1,0,0.17,0.08,0.17,0.17
					S352.07,241.51,351.98,241.51z"/>
			</g>
			<g>
				<path class="st39" d="M331.64,241.92h-4.42c-0.1,0-0.17-0.08-0.17-0.17s0.08-0.17,0.17-0.17h4.42c0.1,0,0.17,0.08,0.17,0.17
					S331.74,241.92,331.64,241.92z"/>
			</g>
			<g>
				<path class="st39" d="M328.59,239.36h-3.46c-0.1,0-0.17-0.08-0.17-0.17s0.08-0.17,0.17-0.17h3.46c0.1,0,0.17,0.08,0.17,0.17
					S328.68,239.36,328.59,239.36z"/>
			</g>
		</g>
	</g>
	<g>
		<g>
			<path class="st36" d="M388.03,211.86h-85.29c-4.15,0-7.52-3.37-7.52-7.52V66.26h100.33v138.09
				C395.55,208.5,392.18,211.86,388.03,211.86z"/>
			<rect x="308.56" y="85.39" class="st36" width="79.47" height="69.53"/>
			<rect x="308.56" y="173.79" class="st36" width="27.94" height="8.85"/>
			<rect x="340.7" y="173.79" class="st36" width="47.33" height="8.85"/>
			<rect x="308.56" y="187.96" class="st36" width="79.47" height="12.35"/>
			<rect x="295.22" y="66.26" class="st36" width="100.33" height="14.89"/>
			<circle class="st36" cx="301.22" cy="73.33" r="3.09"/>
			<path class="st6" d="M301.22,76.41c-1.69,0-3.07-1.37-3.08-3.06c0,0.01,0,0.02,0,0.03c0,1.74,1.38,3.15,3.09,3.15
				s3.09-1.41,3.09-3.15c0-0.01,0-0.02,0-0.03C304.28,75.05,302.91,76.41,301.22,76.41z"/>
			<circle class="st36" cx="308.56" cy="73.33" r="3.09"/>
			<path class="st6" d="M308.56,76.41c-1.69,0-3.07-1.37-3.08-3.06c0,0.01,0,0.02,0,0.03c0,1.74,1.38,3.15,3.09,3.15
				s3.09-1.41,3.09-3.15c0-0.01,0-0.02,0-0.03C311.63,75.05,310.26,76.41,308.56,76.41z"/>
			<circle class="st36" cx="315.85" cy="73.33" r="3.09"/>
			<path class="st6" d="M315.85,76.41c-1.69,0-3.07-1.37-3.08-3.06c0,0.01,0,0.02,0,0.03c0,1.74,1.38,3.15,3.09,3.15
				s3.09-1.41,3.09-3.15c0-0.01,0-0.02,0-0.03C318.92,75.05,317.54,76.41,315.85,76.41z"/>
			<rect x="295.22" y="80.86" class="st37" width="100.33" height="0.29"/>
			<circle class="st6" cx="301.22" cy="73.33" r="2.45"/>
			<circle class="st7" cx="308.56" cy="73.33" r="2.45"/>
			<circle class="st9" cx="315.85" cy="73.33" r="2.45"/>
			<path class="st36" d="M301.22,205.98L301.22,205.98c-1.35,0-2.45-1.1-2.45-2.45V85.72c0-1.35,1.1-2.45,2.45-2.45l0,0
				c1.35,0,2.45,1.1,2.45,2.45v117.81C303.67,204.88,302.56,205.98,301.22,205.98z"/>
			<path class="st6" d="M301.04,103.28L301.04,103.28c-0.54,0-0.98-0.44-0.98-0.98V86.37c0-0.54,0.44-0.98,0.98-0.98l0,0
				c0.54,0,0.98,0.44,0.98,0.98v15.93C302.02,102.84,301.58,103.28,301.04,103.28z"/>
			<line class="st38" x1="311.65" y1="89.47" x2="345.11" y2="89.47"/>
			<line class="st38" x1="348.3" y1="89.47" x2="353.74" y2="89.47"/>
			<line class="st38" x1="359.74" y1="89.47" x2="383.49" y2="89.47"/>
			<line class="st38" x1="311.65" y1="92.9" x2="352.11" y2="92.9"/>
			<line class="st38" x1="356.11" y1="92.28" x2="372.56" y2="92.28"/>
			<line class="st38" x1="375.61" y1="92.28" x2="383.99" y2="92.28"/>
			<line class="st38" x1="313.4" y1="97.15" x2="361.24" y2="97.15"/>
			<line class="st38" x1="366.86" y1="97.15" x2="379.8" y2="97.15"/>
			<line class="st38" x1="383.99" y1="100.97" x2="346.99" y2="100.97"/>
			<line class="st38" x1="362.86" y1="106.15" x2="311.65" y2="106.15"/>
			<line class="st38" x1="346.99" y1="109.4" x2="384.86" y2="109.4"/>
			<line class="st38" x1="343.96" y1="119.01" x2="312.8" y2="119.01"/>
			<line class="st38" x1="311.65" y1="100.97" x2="325.24" y2="100.97"/>
			<line class="st38" x1="333.49" y1="175.83" x2="324.11" y2="175.83"/>
			<line class="st38" x1="332.61" y1="179.96" x2="310.99" y2="179.96"/>
			<line class="st38" x1="343.11" y1="175.83" x2="346.99" y2="175.83"/>
			<line class="st38" x1="350.18" y1="175.83" x2="354.05" y2="175.83"/>
			<line class="st38" x1="357.24" y1="175.83" x2="361.11" y2="175.83"/>
			<line class="st38" x1="364.3" y1="175.83" x2="368.18" y2="175.83"/>
			<line class="st38" x1="371.36" y1="175.83" x2="375.24" y2="175.83"/>
			<line class="st38" x1="378.43" y1="175.83" x2="382.3" y2="175.83"/>
			<line class="st38" x1="343.11" y1="178.84" x2="345.61" y2="178.84"/>
			<line class="st38" x1="348.93" y1="178.84" x2="351.43" y2="178.84"/>
			<line class="st38" x1="354.74" y1="178.84" x2="357.24" y2="178.84"/>
			<line class="st38" x1="360.55" y1="178.84" x2="363.05" y2="178.84"/>
			<line class="st38" x1="366.36" y1="178.84" x2="368.86" y2="178.84"/>
			<line class="st38" x1="372.18" y1="178.84" x2="374.68" y2="178.84"/>
			<line class="st38" x1="377.99" y1="178.84" x2="380.49" y2="178.84"/>
			<polyline class="st38" points="314.05,191.11 311.29,193.86 313.94,196.51 			"/>
			<polyline class="st38" points="316.8,191.11 314.05,193.86 316.69,196.51 			"/>
			<polyline class="st38" points="339.68,125.31 333.49,131.5 339.44,137.45 			"/>
			<polyline class="st38" points="345.87,125.31 339.68,131.5 345.62,137.45 			"/>
			<line class="st38" x1="323.61" y1="191.11" x2="382.3" y2="191.11"/>
			<line class="st38" x1="323.61" y1="193.81" x2="359.18" y2="193.81"/>
			<line class="st38" x1="323.61" y1="197.61" x2="359.18" y2="197.61"/>
		</g>
		<circle class="st38" cx="362.43" cy="128.28" r="12.25"/>
		<path class="st38" d="M357.52,131.38c0,2.71,2.2,4.91,4.91,4.91s4.91-2.2,4.91-4.91H357.52z"/>
		<path class="st38" d="M355.14,126.27c0-1.31,1.07-2.38,2.38-2.38c1.31,0,2.38,1.07,2.38,2.38"/>
		<path class="st38" d="M364.95,126.27c0-1.31,1.07-2.38,2.38-2.38c1.31,0,2.38,1.07,2.38,2.38"/>
		<line class="st38" x1="372.76" y1="140.13" x2="382.86" y2="140.13"/>
	</g>
	<g>
		<path class="st35" d="M395.55,234.58c-3.35,0-6.07-2.72-6.07-6.07c0-3.35,2.72-6.07,6.07-6.07c3.35,0,6.07,2.72,6.07,6.07
			C401.62,231.86,398.9,234.58,395.55,234.58z M395.55,223.53c-2.75,0-4.98,2.23-4.98,4.98s2.23,4.98,4.98,4.98
			c2.75,0,4.98-2.23,4.98-4.98S398.29,223.53,395.55,223.53z"/>
	</g>
	<g>
		<path class="st35" d="M98.27,207.9c-3.35,0-6.07-2.72-6.07-6.07c0-3.35,2.72-6.07,6.07-6.07c3.35,0,6.07,2.72,6.07,6.07
			C104.34,205.18,101.62,207.9,98.27,207.9z M98.27,196.85c-2.75,0-4.98,2.23-4.98,4.98s2.23,4.98,4.98,4.98
			c2.75,0,4.98-2.23,4.98-4.98S101.01,196.85,98.27,196.85z"/>
	</g>
	<g>
		<g>
			
				<rect x="224.84" y="74.31" transform="matrix(0.7071 -0.7071 0.7071 0.7071 7.267 184.0894)" class="st35" width="2" height="17.92"/>
		</g>
		<g>
			
				<rect x="216.88" y="82.27" transform="matrix(0.7071 -0.7071 0.7071 0.7071 7.2631 184.0809)" class="st35" width="17.92" height="2"/>
		</g>
	</g>
	<g>
		<path class="st35" d="M149.51,342.75l-14.25-14.25l14.25-14.25l14.25,14.25L149.51,342.75z M138.1,328.5l11.42,11.42l11.42-11.42
			l-11.42-11.42L138.1,328.5z"/>
	</g>
	<g>
		<path class="st35" d="M101.77,253.43l-14.25-14.25l14.25-14.25l14.25,14.25L101.77,253.43z M90.35,239.19l11.42,11.42l11.42-11.42
			l-11.42-11.42L90.35,239.19z"/>
	</g>
	<g>
		<path class="st35" d="M393.41,264.57l-7.12-7.12l7.12-7.12l7.12,7.12L393.41,264.57z M387.7,257.45l5.71,5.71l5.71-5.71
			l-5.71-5.71L387.7,257.45z"/>
	</g>
	<g>
		<g>
			<polygon class="st35" points="422.67,193.98 414.29,185.6 422.67,177.22 423.54,178.1 416.04,185.6 423.54,193.1 			"/>
		</g>
		<g>
			<polygon class="st35" points="429.11,193.98 420.74,185.6 429.11,177.22 429.99,178.1 422.49,185.6 429.99,193.1 			"/>
		</g>
	</g>
	<g>
		<g>
			<polygon class="st35" points="274.55,129.97 266.17,121.59 274.55,113.21 275.42,114.09 267.92,121.59 275.42,129.09 			"/>
		</g>
		<g>
			<polygon class="st35" points="281,129.97 272.62,121.59 281,113.21 281.87,114.09 274.37,121.59 281.87,129.09 			"/>
		</g>
	</g>
	<g>
		<path class="st35" d="M238.7,122.54h-5.83c-0.84,0-1.53-0.69-1.53-1.53v-3.43h-1.4c-0.58,0-1.08-0.33-1.31-0.87
			c-0.22-0.54-0.11-1.13,0.31-1.54l5.85-5.85c0.55-0.55,1.45-0.55,2,0l5.85,5.85c0.41,0.41,0.53,1,0.31,1.54
			c-0.22,0.54-0.72,0.87-1.31,0.87h-1.4v3.43C240.23,121.85,239.54,122.54,238.7,122.54z M235.78,109.9c-0.11,0-0.21,0.04-0.29,0.12
			l-5.85,5.85c-0.18,0.18-0.11,0.39-0.09,0.45s0.13,0.26,0.38,0.26h2.4v4.43c0,0.29,0.24,0.53,0.53,0.53h5.83
			c0.29,0,0.53-0.24,0.53-0.53v-4.43h2.4c0.26,0,0.36-0.2,0.38-0.26c0.02-0.06,0.09-0.27-0.09-0.45l-5.85-5.85
			C235.99,109.94,235.89,109.9,235.78,109.9z"/>
	</g>
	<g>
		<path class="st35" d="M417.21,154.33h-5.83c-0.84,0-1.53-0.69-1.53-1.53v-3.43h-1.4c-0.58,0-1.08-0.33-1.31-0.87
			c-0.22-0.54-0.11-1.13,0.31-1.54l5.85-5.85c0.55-0.55,1.45-0.55,2,0l5.85,5.85c0.41,0.41,0.53,1,0.31,1.54
			c-0.22,0.54-0.72,0.87-1.31,0.87h-1.4v3.43C418.73,153.64,418.05,154.33,417.21,154.33z M414.29,141.69
			c-0.11,0-0.21,0.04-0.29,0.12l-5.85,5.85c-0.18,0.18-0.11,0.39-0.09,0.45s0.13,0.26,0.38,0.26h2.4v4.43
			c0,0.29,0.24,0.53,0.53,0.53h5.83c0.29,0,0.53-0.24,0.53-0.53v-4.43h2.4c0.26,0,0.36-0.2,0.38-0.26c0.02-0.06,0.09-0.27-0.09-0.45
			l-5.85-5.85C414.5,141.73,414.39,141.69,414.29,141.69z"/>
	</g>
</g>
</svg>
